<?xml version="1.0" standalone="no"?>
<!DOCTYPE svg PUBLIC "-//W3C//DTD SVG 20010904//EN"
 "http://www.w3.org/TR/2001/REC-SVG-20010904/DTD/svg10.dtd">
<svg version="1.0" xmlns="http://www.w3.org/2000/svg"
 width="1146.000000pt" height="1280.000000pt" viewBox="0 0 1146.000000 1280.000000"
 preserveAspectRatio="xMidYMid meet">
<metadata>
Created by potrace 1.15, written by Peter Selinger 2001-2017
</metadata>
<g transform="translate(0.000000,1280.000000) scale(0.100000,-0.100000)"
fill="#3f51b5" stroke="none">
<path d="M11250 12749 c-1047 -268 -2007 -618 -2697 -982 -106 -56 -193 -104
-192 -107 0 -4 1437 -1231 2349 -2008 l110 -93 13 33 c21 50 101 289 141 418
207 679 379 1621 466 2550 23 244 23 240 13 240 -5 -1 -96 -23 -203 -51z"/>
<path d="M7895 11389 c-1043 -644 -1929 -1422 -2659 -2334 -867 -1083 -1528
-2368 -1972 -3830 -52 -172 -54 -181 -36 -195 10 -8 132 -112 270 -230 139
-118 257 -215 262 -215 5 0 95 113 201 250 564 732 887 1124 1084 1314 82 79
121 108 187 140 225 111 446 84 631 -79 48 -42 119 -150 146 -223 58 -157 28
-351 -80 -518 -139 -214 -619 -757 -1271 -1436 -59 -62 -108 -117 -108 -122 0
-4 122 -113 271 -241 l272 -232 121 57 c543 257 1178 625 1689 977 1618 1117
2840 2582 3612 4333 75 169 165 385 165 396 0 7 -2645 2270 -2652 2269 -2 -1
-61 -37 -133 -81z m314 -1379 c174 -35 322 -95 466 -188 409 -263 646 -725
622 -1211 -32 -630 -485 -1148 -1112 -1272 -91 -18 -408 -18 -490 -1 -33 7
-105 27 -160 44 -459 139 -811 521 -921 998 -62 269 -34 577 75 831 199 461
618 768 1126 823 84 9 296 -4 394 -24z"/>
<path d="M7797 9710 c-425 -67 -751 -356 -863 -765 -50 -179 -43 -408 16 -587
118 -353 375 -592 750 -695 52 -14 102 -18 245 -17 166 0 187 2 270 28 295 88
516 268 649 526 88 170 123 334 113 534 -22 458 -336 839 -787 955 -97 25
-299 36 -393 21z"/>
<path d="M3490 7419 c-593 -68 -1249 -413 -1837 -967 -953 -896 -1532 -1892
-1638 -2812 -9 -74 -15 -177 -13 -229 l3 -94 89 134 c326 490 693 919 1081
1264 553 493 1187 832 1730 925 90 15 101 19 107 41 47 157 178 527 252 712
115 286 211 498 361 797 63 126 115 232 115 235 0 8 -165 4 -250 -6z"/>
<path d="M5421 6058 c-174 -50 -560 -510 -1788 -2133 -408 -540 -1533 -2050
-1656 -2225 -25 -35 149 140 737 740 1740 1778 2602 2694 2890 3074 143 188
175 292 122 401 -59 119 -185 178 -305 143z"/>
<path d="M2772 4850 c-495 -363 -997 -979 -1284 -1577 -143 -298 -343 -848
-428 -1175 -41 -160 -142 -646 -179 -863 -49 -289 -73 -518 -75 -707 0 -102 2
-190 6 -194 12 -11 189 13 330 46 242 55 553 155 963 307 318 119 431 167 675
289 865 434 1403 864 1873 1499 149 202 363 556 355 589 -2 11 -203 189 -237
210 -6 4 -23 -19 -42 -56 -72 -143 -242 -375 -392 -536 -549 -588 -1305 -1046
-2259 -1371 -218 -74 -566 -176 -573 -169 -6 5 28 281 55 458 62 398 153 778
270 1130 195 584 449 1071 768 1470 132 165 375 404 490 480 22 15 21 17 -94
115 -65 55 -123 103 -129 107 -7 4 -46 -17 -93 -52z"/>
<path d="M7327 4314 c-41 -36 -307 -224 -484 -342 -316 -211 -616 -389 -918
-543 l-190 -97 -2 -78 c-24 -817 -430 -1712 -1162 -2564 -115 -135 -469 -496
-611 -625 l-75 -68 50 7 c331 47 714 193 1072 410 623 376 1177 922 1699 1676
299 431 505 870 608 1292 46 188 64 303 75 473 12 173 -6 486 -28 485 -3 0
-19 -12 -34 -26z"/>
</g>
</svg>
